Coordinates
version=1
nRows=14
nColumns=24
inDegrees=yes

Units are S.I. units (second, meters, Newtons, ...)
Angles are in degrees.

endheader
time	pelvis_tilt	pelvis_list	pelvis_rotation	pelvis_tx	pelvis_ty	pelvis_tz	hip_flexion_r	hip_adduction_r	hip_rotation_r	knee_angle_r	ankle_angle_r	subtalar_angle_r	mtp_angle_r	hip_flexion_l	hip_adduction_l	hip_rotation_l	knee_angle_l	ankle_angle_l	subtalar_angle_l	mtp_angle_l	lumbar_extension	lumbar_bending	lumbar_rotation
      0.44200000	      1.29989782	      3.30762748	     -0.18011535	     -0.85992384	      1.00309542	      0.30854199	     22.13792875	     -2.29884849	     -9.97686482	     -0.88393444	     -0.58485654	     -8.20161907	     -0.28877024	    -13.13427941	      4.59045528	     -8.21376309	     -8.29219315	     13.36195377	     -6.65126332	     -0.53534277	    -13.22621991	     -3.57913213	     -3.14719835
      0.44616667	      1.61111119	      3.10636310	     -0.26099000	     -0.85364428	      1.00273186	      0.30873783	     21.86028634	     -2.03254346	     -9.72691031	     -1.54680234	     -0.72662142	     -8.40736550	     -0.59216298	    -13.62155447	      4.32930706	     -8.43012322	     -8.80735678	     13.64420557	     -6.34031366	     -1.55824714	    -13.52932732	     -3.24069431	     -3.01986221
      0.45033333	      1.70739550	      3.06843070	     -0.19246191	     -0.84757899	      1.00210922	      0.30861337	     21.86028035	     -2.00297606	     -9.57288528	     -2.34277650	     -0.82801187	     -8.60149257	     -0.62413919	    -13.81011526	      4.23629693	     -8.25256592	     -9.41103588	     13.77444387	     -6.41104610	     -1.67360937	    -13.62317142	     -3.06691635	     -3.06447360
      0.45450000	      1.93237940	      2.95368033	     -0.17472012	     -0.84139015	      1.00174841	      0.30863419	     21.66521188	     -1.85980761	     -9.35832029	     -3.05837943	     -1.08641126	     -8.97384445	     -2.99124810	    -14.15156057	      4.06480740	     -8.16839940	    -10.00501611	     13.95523219	     -6.31846873	    -12.01336096	    -13.85091689	     -2.81982452	     -3.13391075
      0.45866667	      2.08271244	      2.83092809	     -0.08627672	     -0.83512287	      1.00132572	      0.30853797	     21.52451928	     -1.73702675	     -9.24679997	     -3.76619542	     -1.37700721	     -9.30596100	     -2.95239499	    -14.36394131	      3.85522222	     -8.09316959	    -10.69821403	     14.05413093	     -6.22614413	    -12.00497394	    -13.98239890	     -2.53280536	     -3.30613568
      0.46283333	      2.23153639	      2.74994424	     -0.04472824	     -0.82890928	      1.00091434	      0.30852591	     21.40315240	     -1.64131274	     -9.08097723	     -4.50627039	     -1.65816301	     -9.60489912	     -2.93002159	    -14.55124491	      3.70601890	     -7.99373457	    -11.42315839	     14.12304669	     -6.26123264	    -11.98961485	    -14.12652916	     -2.31609019	     -3.35496831
      0.46700000	      2.46985714	      2.59178477	     -0.04014899	     -0.82254480	      1.00071485	      0.30867199	     21.11489663	     -1.43129641	     -8.86244132	     -5.11338675	     -2.12749329	    -10.14070330	     -2.84312991	    -14.82666107	      3.45779282	     -8.07278091	    -12.17500119	     14.10223004	     -6.12917326	    -11.90790756	    -14.33961351	     -2.00036024	     -3.45577795
      0.47116667	      2.61708601	      2.49109425	      0.02089908	     -0.81622096	      1.00044021	      0.30868661	     20.93108415	     -1.30943692	     -8.71342262	     -5.74475478	     -2.58177692	    -10.63209793	     -2.79433855	    -14.95698053	      3.26699419	     -8.00688036	    -12.99861075	     14.01122776	     -6.12597541	    -11.83928805	    -14.46272402	     -1.75085389	     -3.49452640
      0.47533333	      2.78030888	      2.37683141	      0.05299107	     -0.80988833	      1.00023514	      0.30880281	     20.70591242	     -1.15557781	     -8.51956394	     -6.31663294	     -3.10059907	    -11.16345870	     -2.73699331	    -15.06858566	      3.05607070	     -8.00510744	    -13.89764330	     13.90146684	     -6.09912395	    -11.73654092	    -14.60516743	     -1.49217091	     -3.55316421
      0.47950000	      2.96000517	      2.24575489	      0.02237221	     -0.80353097	      1.00008226	      0.30909637	     20.44925774	     -0.95378164	     -8.26393549	     -6.84176094	     -3.68950281	    -11.71880585	     -2.62723566	    -15.16584635	      2.82471992	     -8.12445864	    -14.86287874	     13.78127649	     -6.00598144	    -11.50239353	    -14.76609715	     -1.23424057	     -3.58333301
      0.48366667	      3.07611852	      2.14340235	      0.08095942	     -0.79717030	      0.99994450	      0.30917542	     20.24307623	     -0.82443788	     -8.13140259	     -7.34821692	     -4.27259530	    -12.27987025	     -2.57190145	    -15.14583095	      2.61376634	     -8.08541754	    -15.89435610	     13.53795812	     -6.04717057	    -11.34504006	    -14.84967584	     -0.98417862	     -3.58055005
      0.48783333	      3.24735692	      2.01078577	      0.01320315	     -0.79081272	      0.99988517	      0.30960031	     19.97276358	     -0.60451834	     -7.85445993	     -7.80478427	     -4.96747773	    -12.91147771	     -2.44602495	    -15.15329082	      2.36828697	     -8.27704659	    -17.00200860	     13.31508597	     -5.92535339	    -10.93612347	    -15.00428121	     -0.73726863	     -3.59288985
      0.49200000	      3.31839396	      1.93841364	      0.07969141	     -0.78451781	      0.99979499	      0.30962990	     19.81554044	     -0.52596437	     -7.80253856	     -8.29262928	     -5.61012405	    -13.38035229	     -2.42189572	    -14.98902427	      2.18592676	     -8.18673272	    -18.19446968	     12.97094435	     -6.04731709	    -10.81030062	    -15.05226814	     -0.51755415	     -3.51685956
      0.49616667	      3.28975728	      1.81650818	     -0.09195378	     -0.77809534	      0.99946991	      0.31041958	     19.76985588	     -0.26537742	     -7.38772676	     -8.74410024	     -6.29399640	    -14.14008537	     -0.81831613	    -14.68208083	      1.93134039	     -8.57377958	    -19.48917791	     12.53896647	     -5.95842519	     -2.72662522	    -14.94893591	     -0.32261558	     -3.39556259
